<svg xmlns="http://www.w3.org/2000/svg" width="1200" height="720" viewBox="0 0 1200 720" role="img" aria-label="Login Theme Studio editor">
  <rect width="1200" height="720" fill="#f5f7fb"/>
  <rect x="40" y="40" width="1120" height="640" rx="8" fill="#ffffff" stroke="#d9dee7"/>
  <rect x="40" y="40" width="1120" height="58" rx="8" fill="#714b67"/>
  <text x="72" y="76" fill="#ffffff" font-family="Arial, sans-serif" font-size="22" font-weight="700">Login Theme Studio</text>
  <rect x="72" y="132" width="310" height="500" rx="6" fill="#f8fafc" stroke="#e5e7eb"/>
  <text x="96" y="168" fill="#111827" font-family="Arial, sans-serif" font-size="20" font-weight="700">Theme Settings</text>
  <rect x="96" y="202" width="240" height="34" rx="4" fill="#ffffff" stroke="#d1d5db"/>
  <rect x="96" y="258" width="240" height="34" rx="4" fill="#ffffff" stroke="#d1d5db"/>
  <rect x="96" y="314" width="118" height="34" rx="4" fill="#714b67"/>
  <rect x="226" y="314" width="110" height="34" rx="4" fill="#017e84"/>
  <rect x="96" y="390" width="64" height="64" rx="4" fill="#714b67"/>
  <rect x="172" y="390" width="64" height="64" rx="4" fill="#017e84"/>
  <rect x="248" y="390" width="64" height="64" rx="4" fill="#f59e0b"/>
  <rect x="430" y="132" width="660" height="500" rx="8" fill="#eef7f8" stroke="#d1d5db"/>
  <rect x="598" y="184" width="324" height="392" rx="10" fill="#ffffff" stroke="#e5e7eb"/>
  <circle cx="760" cy="232" r="34" fill="#714b67"/>
  <text x="690" y="292" fill="#111827" font-family="Arial, sans-serif" font-size="24" font-weight="700">Welcome back</text>
  <rect x="646" y="330" width="228" height="36" rx="4" fill="#ffffff" stroke="#d1d5db"/>
  <rect x="646" y="386" width="228" height="36" rx="4" fill="#ffffff" stroke="#d1d5db"/>
  <rect x="646" y="450" width="228" height="40" rx="5" fill="#714b67"/>
  <text x="735" y="476" fill="#ffffff" font-family="Arial, sans-serif" font-size="15" font-weight="700">Log in</text>
</svg>
